<?xml version="1.0" encoding="UTF-8" standalone="no" ?>
<!DOCTYPE svg PUBLIC "-//W3C//DTD SVG 1.1//EN" "http://www.w3.org/Graphics/SVG/1.1/DTD/svg11.dtd">
<svg xmlns="http://www.w3.org/2000/svg" xmlns:xlink="http://www.w3.org/1999/xlink" version="1.1" width="559.4553" height="426.14871999999997" xml:space="preserve">
<desc>Created with Fabric.js 1.6.0-rc.1</desc>
<defs></defs>
  <g transform="translate(280.86 339.29) scale(1.64 1.48)">
   <text font-family="Bombardier" font-size="40" font-weight="normal" style="stroke: none; stroke-width: 1; stroke-dasharray: none; stroke-linecap: butt; stroke-linejoin: miter; stroke-miterlimit: 10; fill: #ffffff; fill-rule: nonzero; opacity: 1;" ><tspan x="-156.38" y="-17.23" style="stroke: none; stroke-width: 0; stroke-dasharray: none; stroke-linecap: butt; stroke-linejoin: miter; stroke-miterlimit: 4; fill: #ffffff; fill-rule: ; opacity: 1;">R</tspan><tspan x="-137.06" y="-17.23" style="stroke: none; stroke-width: 0; stroke-dasharray: none; stroke-linecap: butt; stroke-linejoin: miter; stroke-miterlimit: 4; fill: #ffffff; fill-rule: ; opacity: 1;">i</tspan><tspan x="-128.42" y="-17.23" style="stroke: none; stroke-width: 0; stroke-dasharray: none; stroke-linecap: butt; stroke-linejoin: miter; stroke-miterlimit: 4; fill: #ffffff; fill-rule: ; opacity: 1;">g</tspan><tspan x="-108.5" y="-17.23" style="stroke: none; stroke-width: 0; stroke-dasharray: none; stroke-linecap: butt; stroke-linejoin: miter; stroke-miterlimit: 4; fill: #ffffff; fill-rule: ; opacity: 1;">h</tspan><tspan x="-88.98" y="-17.23" style="stroke: none; stroke-width: 0; stroke-dasharray: none; stroke-linecap: butt; stroke-linejoin: miter; stroke-miterlimit: 4; fill: #ffffff; fill-rule: ; opacity: 1;">t</tspan><tspan x="-76.62" y="-17.23" style="stroke: none; stroke-width: 0; stroke-dasharray: none; stroke-linecap: butt; stroke-linejoin: miter; stroke-miterlimit: 4; fill: #ffffff; fill-rule: ; opacity: 1;">w</tspan><tspan x="-52.58" y="-17.23" style="stroke: none; stroke-width: 0; stroke-dasharray: none; stroke-linecap: butt; stroke-linejoin: miter; stroke-miterlimit: 4; fill: #ffffff; fill-rule: ; opacity: 1;">a</tspan><tspan x="-33.06" y="-17.23" style="stroke: none; stroke-width: 0; stroke-dasharray: none; stroke-linecap: butt; stroke-linejoin: miter; stroke-miterlimit: 4; fill: #ffffff; fill-rule: ; opacity: 1;">y</tspan><tspan x="-14.38" y="-17.23" style="stroke: none; stroke-width: 0; stroke-dasharray: none; stroke-linecap: butt; stroke-linejoin: miter; stroke-miterlimit: 4; fill: #ffffff; fill-rule: ; opacity: 1;"> </tspan><tspan x="-4.38" y="-17.23" style="stroke: none; stroke-width: 0; stroke-dasharray: none; stroke-linecap: butt; stroke-linejoin: miter; stroke-miterlimit: 4; fill: #ffffff; fill-rule: ; opacity: 1;">I</tspan><tspan x="4.26" y="-17.23" style="stroke: none; stroke-width: 0; stroke-dasharray: none; stroke-linecap: butt; stroke-linejoin: miter; stroke-miterlimit: 4; fill: #ffffff; fill-rule: ; opacity: 1;">n</tspan><tspan x="23.78" y="-17.23" style="stroke: none; stroke-width: 0; stroke-dasharray: none; stroke-linecap: butt; stroke-linejoin: miter; stroke-miterlimit: 4; fill: #ffffff; fill-rule: ; opacity: 1;">d</tspan><tspan x="43.3" y="-17.23" style="stroke: none; stroke-width: 0; stroke-dasharray: none; stroke-linecap: butt; stroke-linejoin: miter; stroke-miterlimit: 4; fill: #ffffff; fill-rule: ; opacity: 1;">u</tspan><tspan x="62.82" y="-17.23" style="stroke: none; stroke-width: 0; stroke-dasharray: none; stroke-linecap: butt; stroke-linejoin: miter; stroke-miterlimit: 4; fill: #ffffff; fill-rule: ; opacity: 1;">s</tspan><tspan x="81.54" y="-17.23" style="stroke: none; stroke-width: 0; stroke-dasharray: none; stroke-linecap: butt; stroke-linejoin: miter; stroke-miterlimit: 4; fill: #ffffff; fill-rule: ; opacity: 1;">t</tspan><tspan x="93.9" y="-17.23" style="stroke: none; stroke-width: 0; stroke-dasharray: none; stroke-linecap: butt; stroke-linejoin: miter; stroke-miterlimit: 4; fill: #ffffff; fill-rule: ; opacity: 1;">r</tspan><tspan x="109.3" y="-17.23" style="stroke: none; stroke-width: 0; stroke-dasharray: none; stroke-linecap: butt; stroke-linejoin: miter; stroke-miterlimit: 4; fill: #ffffff; fill-rule: ; opacity: 1;">i</tspan><tspan x="117.94" y="-17.23" style="stroke: none; stroke-width: 0; stroke-dasharray: none; stroke-linecap: butt; stroke-linejoin: miter; stroke-miterlimit: 4; fill: #ffffff; fill-rule: ; opacity: 1;">e</tspan><tspan x="137.66" y="-17.23" style="stroke: none; stroke-width: 0; stroke-dasharray: none; stroke-linecap: butt; stroke-linejoin: miter; stroke-miterlimit: 4; fill: #ffffff; fill-rule: ; opacity: 1;">s</tspan><tspan x="-156.38" y="35.2" fill="#ffffff"></tspan></text>
 </g>
<g style="stroke: none; stroke-width: 1; stroke-dasharray: none; stroke-linecap: butt; stroke-linejoin: miter; stroke-miterlimit: 10; fill: none; fill-rule: nonzero; opacity: 1;" transform="translate(10 10.000000000000014) scale(2.29 2.03)" >
  <path d="M 44.425 48.575 a 40.73 40.73 0 0 1 15.624 3.099 c 7.565 -25.099 30.856 -43.38 58.421 -43.38 c 27.27 0 50.358 17.891 58.175 42.574 a 40.803 40.803 0 0 1 13.501 -2.293 c 22.573 0 40.873 18.299 40.873 40.872 c 0 3.918 -0.563 7.702 -1.591 11.288 a 39.721 39.721 0 0 0 5.145 -19.581 c 0 -22.574 -18.871 -40.873 -42.149 -40.873 c -4.882 0 -9.563 0.814 -13.924 2.293 C 170.438 17.891 146.629 0 118.509 0 C 90.083 0 66.064 18.281 58.261 43.38 a 43.159 43.159 0 0 0 -16.111 -3.099 C 18.872 40.281 0 58.58 0 81.154 a 39.717 39.717 0 0 0 5.146 19.581 a 40.868 40.868 0 0 1 -1.592 -11.288 c -0.002 -22.573 18.297 -40.872 40.871 -40.872 z" style="stroke: none; stroke-width: 1; stroke-dasharray: none; stroke-linecap: butt; stroke-linejoin: miter; stroke-miterlimit: 10; fill: #f4f5f2; fill-rule: nonzero; opacity: 1;" transform="" stroke-linecap="round" />
  <path d="M 163.476 76.264 c 0.172 -1.131 0.246 -2.274 0.324 -3.414 a 77.974 77.974 0 0 0 8.33 -2.631 c 0.008 -1.549 -0.09 -3.094 -0.218 -4.635 a 69.655 69.655 0 0 0 -8.628 -2.258 c -0.158 -1.134 -0.431 -2.245 -0.665 -3.364 c -0.301 -1.103 -0.568 -2.215 -0.944 -3.295 a 77.702 77.702 0 0 0 6.833 -5.451 a 47.089 47.089 0 0 0 -1.873 -4.242 a 68.67 68.67 0 0 0 -8.854 0.986 c -0.591 -0.979 -1.178 -1.962 -1.849 -2.889 c -0.64 -0.949 -1.352 -1.845 -2.057 -2.745 a 79.96 79.96 0 0 0 4.382 -7.557 a 58.886 58.886 0 0 0 -3.278 -3.276 c -2.771 1.25 -5.377 2.596 -7.903 4.144 c -0.884 -0.725 -1.825 -1.376 -2.76 -2.036 c -0.959 -0.622 -1.917 -1.247 -2.917 -1.8 c 0.623 -2.846 1.061 -5.689 1.374 -8.635 a 53.987 53.987 0 0 0 -4.241 -1.866 a 69.843 69.843 0 0 0 -5.876 6.692 a 45.335 45.335 0 0 0 -3.313 -0.891 a 40.387 40.387 0 0 0 -3.369 -0.636 a 77.009 77.009 0 0 0 -1.846 -8.542 c -1.54 -0.154 -3.09 -0.204 -4.636 -0.209 a 68.709 68.709 0 0 0 -3.05 8.376 c -1.141 0.062 -2.277 0.21 -3.409 0.364 a 42.344 42.344 0 0 0 -3.37 0.631 c -1.459 -2.526 -3.047 -4.914 -4.801 -7.307 c -1.478 0.439 -2.951 0.907 -4.389 1.479 c -0.145 2.98 -0.071 6 0.16 8.899 c -1.024 0.508 -2.061 0.996 -3.045 1.578 c -1.007 0.543 -1.962 1.176 -2.924 1.792 a 79.37 79.37 0 0 0 -7.117 -5.063 a 55.608 55.608 0 0 0 -3.567 2.966 a 69.659 69.659 0 0 0 3.395 8.248 c -0.805 0.813 -1.54 1.692 -2.278 2.563 a 46.137 46.137 0 0 0 -2.065 2.738 c -2.775 -0.881 -5.563 -1.576 -8.475 -2.161 a 57.457 57.457 0 0 0 -2.244 4.05 a 70.375 70.375 0 0 0 6.127 6.47 a 42.561 42.561 0 0 0 -1.197 3.213 c -0.343 1.09 -0.692 2.182 -0.941 3.298 a 77.015 77.015 0 0 0 -8.679 1.042 a 47.115 47.115 0 0 0 -0.635 4.597 a 68.964 68.964 0 0 0 8.049 3.814 c -0.013 1.142 -0.027 2.289 0.056 3.429 c 0.046 1.143 0.176 2.279 0.308 3.415 a 82.13 82.13 0 0 0 -7.711 4.117 c 0.308 1.512 0.646 3.016 1.072 4.498 a 70.85 70.85 0 0 0 8.881 0.655 c 0.4 1.071 0.806 2.142 1.286 3.179 c 0.448 1.052 0.984 2.065 1.518 3.075 a 77.937 77.937 0 0 0 -5.704 6.618 c 0.81 1.32 1.701 2.587 2.623 3.828 a 68.99 68.99 0 0 0 8.525 -2.613 c 0.732 0.878 1.542 1.689 2.344 2.502 a 42.623 42.623 0 0 0 2.534 2.311 a 81 81 0 0 0 -2.931 8.242 a 59.446 59.446 0 0 0 3.829 2.607 a 70.248 70.248 0 0 0 7.005 -5.512 a 46.398 46.398 0 0 0 3.088 1.492 c 1.056 0.438 2.109 0.883 3.197 1.238 a 77.953 77.953 0 0 0 0.234 8.739 c 1.488 0.416 2.993 0.786 4.517 1.058 a 69.619 69.619 0 0 0 4.544 -7.656 c 1.139 0.109 2.277 0.236 3.421 0.259 c 1.142 0.068 2.286 0.029 3.429 0.012 a 79.735 79.735 0 0 0 3.393 8.049 c 1.54 -0.145 3.066 -0.378 4.588 -0.644 c 0.668 -2.962 1.165 -5.852 1.455 -8.799 a 41.827 41.827 0 0 0 3.285 -0.979 c 1.078 -0.38 2.157 -0.767 3.2 -1.233 a 77.146 77.146 0 0 0 6.06 6.298 c 1.391 -0.677 2.735 -1.45 4.055 -2.259 a 68.287 68.287 0 0 0 -1.809 -8.727 a 40.836 40.836 0 0 0 2.708 -2.104 a 45.03 45.03 0 0 0 2.538 -2.307 a 80.187 80.187 0 0 0 7.933 3.671 a 56.961 56.961 0 0 0 2.955 -3.57 c -1.495 -2.639 -3.077 -5.111 -4.85 -7.484 c 0.637 -0.95 1.204 -1.943 1.772 -2.935 c 0.529 -1.014 1.069 -2.023 1.524 -3.072 c 2.888 0.357 5.771 0.537 8.725 0.574 a 51.403 51.403 0 0 0 1.47 -4.397 a 70.104 70.104 0 0 0 -7.202 -5.233 c 0.215 -1.121 0.438 -2.244 0.574 -3.379 z m -9.545 -1.274 a 34.88 34.88 0 0 1 -3.986 12.147 a 34.856 34.856 0 0 1 -8.113 9.894 a 34.709 34.709 0 0 1 -11.115 6.278 c -4.067 1.41 -8.399 2.013 -12.665 1.852 a 34.71 34.71 0 0 1 -12.45 -2.846 A 34.769 34.769 0 0 1 87.72 84.662 a 34.746 34.746 0 0 1 -3.009 -12.446 a 34.765 34.765 0 0 1 7.84 -23.874 a 34.755 34.755 0 0 1 9.774 -8.221 c 3.721 -2.092 7.851 -3.535 12.112 -4.139 a 34.73 34.73 0 0 1 12.756 0.506 a 34.845 34.845 0 0 1 11.737 5.094 a 34.892 34.892 0 0 1 9.096 8.983 a 35.103 35.103 0 0 1 5.236 11.662 a 35.115 35.115 0 0 1 0.669 12.763 z" style="stroke: none; stroke-width: 1; stroke-dasharray: none; stroke-linecap: butt; stroke-linejoin: miter; stroke-miterlimit: 10; fill: #332e2e; fill-rule: nonzero; opacity: 1;" transform="" stroke-linecap="round" />
  <path d="M 212.828 98.843 c 0.451 -1.317 0.729 -2.682 0.912 -4.061 c 0.121 -1.385 0.146 -2.777 -0.007 -4.161 a 33.077 33.077 0 0 0 8.453 -5.653 c -0.662 -2.274 -1.561 -4.487 -2.768 -6.519 c -3.627 -0.03 -7.11 0.561 -10.294 1.707 c -0.892 -1.067 -1.949 -1.987 -3.06 -2.817 c -1.112 -0.837 -2.337 -1.507 -3.596 -2.098 a 33.328 33.328 0 0 0 -0.684 -10.126 c -2.29 -0.603 -4.642 -0.853 -7 -0.888 c -1.852 3.146 -3.082 6.465 -3.692 9.761 c -1.357 0.302 -2.699 0.688 -3.967 1.263 c -1.266 0.569 -2.497 1.236 -3.6 2.084 c -2.723 -1.932 -5.769 -3.428 -9.115 -4.505 c -1.667 1.677 -3.075 3.601 -4.282 5.64 c 1.799 3.175 4.054 5.898 6.619 8.076 c -0.45 1.317 -0.728 2.682 -0.913 4.06 c -0.12 1.385 -0.146 2.777 0.007 4.162 a 33.086 33.086 0 0 0 -8.452 5.652 c 0.662 2.274 1.561 4.487 2.766 6.521 c 3.628 0.029 7.111 -0.562 10.296 -1.708 c 0.891 1.068 1.948 1.988 3.06 2.819 c 1.112 0.836 2.336 1.506 3.596 2.096 a 33.335 33.335 0 0 0 0.684 10.127 c 2.291 0.604 4.643 0.854 7 0.888 c 1.852 -3.145 3.08 -6.464 3.693 -9.761 c 1.356 -0.302 2.697 -0.688 3.966 -1.263 c 1.265 -0.569 2.497 -1.236 3.6 -2.084 c 2.722 1.933 5.768 3.429 9.114 4.506 c 1.668 -1.677 3.076 -3.601 4.283 -5.64 c -1.799 -3.177 -4.054 -5.901 -6.619 -8.078 z m -9.976 -5.26 c -0.336 2.813 -2.152 5.418 -4.815 6.529 c -2.551 1.167 -5.8 0.81 -8.034 -0.886 c -2.356 -1.664 -3.563 -4.601 -3.277 -7.421 c 0.335 -2.815 2.151 -5.418 4.815 -6.529 c 2.549 -1.168 5.798 -0.81 8.032 0.886 c 2.358 1.663 3.564 4.603 3.279 7.421 z" style="stroke: none; stroke-width: 1; stroke-dasharray: none; stroke-linecap: butt; stroke-linejoin: miter; stroke-miterlimit: 10; fill: #9ea2a6; fill-rule: nonzero; opacity: 1;" transform="" stroke-linecap="round" />
  <path d="M 62.761 89.298 c 0.086 -1.391 -0.008 -2.78 -0.195 -4.157 c -0.252 -1.368 -0.596 -2.717 -1.11 -4.011 a 33.086 33.086 0 0 0 6.653 -7.691 c -1.242 -2.018 -2.694 -3.914 -4.396 -5.553 c -3.505 0.933 -6.708 2.425 -9.475 4.374 c -1.142 -0.792 -2.406 -1.399 -3.696 -1.906 c -1.294 -0.512 -2.652 -0.834 -4.023 -1.07 a 33.318 33.318 0 0 0 -3.343 -9.584 c -2.368 0.025 -4.702 0.408 -6.984 1 c -0.952 3.523 -1.259 7.05 -0.976 10.39 c -1.228 0.65 -2.418 1.379 -3.488 2.269 c -1.07 0.885 -2.081 1.854 -2.919 2.964 c -3.137 -1.142 -6.472 -1.778 -9.982 -1.929 c -1.164 2.06 -2.013 4.286 -2.636 6.573 c 2.576 2.585 5.473 4.613 8.523 6.033 c -0.086 1.39 0.009 2.779 0.195 4.157 c 0.252 1.368 0.596 2.717 1.109 4.012 a 33.082 33.082 0 0 0 -6.652 7.691 c 1.241 2.018 2.693 3.913 4.395 5.553 c 3.507 -0.932 6.709 -2.425 9.477 -4.375 c 1.141 0.793 2.404 1.4 3.695 1.907 c 1.294 0.513 2.653 0.834 4.023 1.068 a 33.327 33.327 0 0 0 3.343 9.584 c 2.37 -0.025 4.702 -0.408 6.984 -0.999 c 0.952 -3.523 1.258 -7.051 0.975 -10.391 c 1.229 -0.65 2.42 -1.379 3.49 -2.27 c 1.068 -0.883 2.08 -1.853 2.919 -2.962 c 3.136 1.142 6.471 1.777 9.982 1.929 c 1.164 -2.06 2.012 -4.286 2.635 -6.573 c -2.576 -2.585 -5.473 -4.613 -8.523 -6.033 z m -11.013 -2.43 c 0.422 2.802 -0.639 5.795 -2.914 7.572 c -2.149 1.802 -5.377 2.318 -7.98 1.275 c -2.714 -0.98 -4.656 -3.493 -5.128 -6.288 c -0.422 -2.803 0.64 -5.794 2.914 -7.572 c 2.148 -1.802 5.376 -2.318 7.979 -1.275 c 2.715 0.981 4.656 3.496 5.129 6.288 z M 139.361 70.279 l -0.103 -2.031 a 38.129 38.129 0 0 0 2.214 -0.964 c -0.117 -0.886 -0.27 -1.764 -0.521 -2.624 a 38.538 38.538 0 0 0 -2.422 -0.045 c -0.188 -0.65 -0.453 -1.277 -0.677 -1.916 c -0.269 -0.621 -0.581 -1.226 -0.87 -1.838 a 37.882 37.882 0 0 0 1.676 -1.742 a 17.662 17.662 0 0 0 -1.488 -2.221 c -0.768 0.275 -1.518 0.57 -2.252 0.886 c -0.437 -0.518 -0.906 -1.008 -1.358 -1.512 c -0.505 -0.453 -0.995 -0.923 -1.513 -1.358 c 0.316 -0.735 0.612 -1.486 0.887 -2.252 a 17.634 17.634 0 0 0 -2.221 -1.489 a 37.906 37.906 0 0 0 -1.743 1.676 c -0.613 -0.29 -1.216 -0.602 -1.837 -0.87 c -0.64 -0.224 -1.266 -0.488 -1.916 -0.677 c 0.01 -0.801 -0.005 -1.608 -0.046 -2.422 c -0.858 -0.251 -1.738 -0.403 -2.624 -0.521 a 37.79 37.79 0 0 0 -0.963 2.213 l -2.031 -0.103 l -2.031 0.103 a 39.187 39.187 0 0 0 -0.963 -2.213 c -0.886 0.118 -1.765 0.27 -2.625 0.521 a 39.34 39.34 0 0 0 -0.045 2.422 c -0.65 0.189 -1.277 0.454 -1.917 0.677 c -0.62 0.268 -1.224 0.581 -1.837 0.87 a 38.4 38.4 0 0 0 -1.742 -1.676 c -0.774 0.447 -1.522 0.93 -2.221 1.489 c 0.274 0.766 0.57 1.517 0.887 2.252 c -0.519 0.436 -1.008 0.905 -1.514 1.358 c -0.451 0.504 -0.921 0.994 -1.357 1.512 a 38.87 38.87 0 0 0 -2.252 -0.886 a 17.896 17.896 0 0 0 -1.49 2.221 a 39.018 39.018 0 0 0 1.678 1.743 c -0.289 0.611 -0.602 1.216 -0.871 1.837 c -0.223 0.639 -0.488 1.266 -0.676 1.916 c -0.801 -0.01 -1.608 0.004 -2.422 0.045 c -0.252 0.86 -0.403 1.738 -0.521 2.625 c 0.734 0.347 1.473 0.668 2.215 0.963 l -0.104 2.031 l 0.104 2.03 a 40 40 0 0 0 -2.215 0.964 c 0.118 0.886 0.27 1.765 0.521 2.624 c 0.813 0.041 1.621 0.056 2.422 0.046 c 0.188 0.65 0.453 1.276 0.676 1.916 c 0.27 0.621 0.582 1.225 0.871 1.837 a 38.444 38.444 0 0 0 -1.677 1.743 a 18.04 18.04 0 0 0 1.489 2.221 a 38.17 38.17 0 0 0 2.252 -0.887 c 0.437 0.518 0.906 1.008 1.357 1.513 c 0.506 0.451 0.996 0.922 1.514 1.358 a 39.452 39.452 0 0 0 -0.887 2.252 a 17.743 17.743 0 0 0 2.221 1.489 c 0.604 -0.545 1.182 -1.1 1.742 -1.676 c 0.613 0.289 1.217 0.602 1.837 0.871 c 0.64 0.223 1.267 0.488 1.917 0.676 c -0.01 0.801 0.005 1.608 0.046 2.422 c 0.859 0.251 1.738 0.403 2.624 0.521 c 0.346 -0.734 0.668 -1.472 0.963 -2.213 l 2.031 0.102 l 2.031 -0.102 c 0.295 0.741 0.616 1.479 0.963 2.213 c 0.886 -0.118 1.766 -0.27 2.624 -0.521 a 38.57 38.57 0 0 0 0.046 -2.422 c 0.65 -0.188 1.276 -0.453 1.916 -0.676 c 0.621 -0.269 1.224 -0.582 1.838 -0.871 a 37.862 37.862 0 0 0 1.742 1.676 a 18.002 18.002 0 0 0 2.221 -1.489 a 38.023 38.023 0 0 0 -0.887 -2.252 c 0.518 -0.436 1.008 -0.907 1.513 -1.358 c 0.452 -0.505 0.922 -0.995 1.358 -1.513 c 0.734 0.315 1.484 0.612 2.252 0.887 a 17.7 17.7 0 0 0 1.488 -2.221 a 38.424 38.424 0 0 0 -1.676 -1.743 c 0.289 -0.613 0.602 -1.216 0.87 -1.837 c 0.224 -0.64 0.488 -1.266 0.677 -1.916 c 0.801 0.01 1.608 -0.005 2.422 -0.046 c 0.252 -0.859 0.404 -1.738 0.521 -2.624 a 38.919 38.919 0 0 0 -2.214 -0.964 l 0.103 -2.03 z m -19.808 10.58 c -5.844 0 -10.58 -4.737 -10.58 -10.58 s 4.736 -10.58 10.58 -10.58 c 5.843 0 10.579 4.737 10.579 10.58 s -4.737 10.58 -10.579 10.58 z" style="stroke: none; stroke-width: 1; stroke-dasharray: none; stroke-linecap: butt; stroke-linejoin: miter; stroke-miterlimit: 10; fill: #9ea2a6; fill-rule: nonzero; opacity: 1;" transform="" stroke-linecap="round" />
</g>
</svg>